<?xml version="1.0" encoding="UTF-8"?>
<svg id="Capa_1" xmlns="http://www.w3.org/2000/svg" version="1.1" viewBox="0 0 5392.4 1285.4">
  <!-- Generator: Adobe Illustrator 30.5.1, SVG Export Plug-In . SVG Version: 2.1.4 Build 3)  -->
  <defs>
    <style>
      .st0 {
        fill: #fff;
      }
    </style>
  </defs>
  <g>
    <g>
      <path class="st0" d="M4190.2,1200.1l-4.6-89.4-37.5,65.6c-1.8,3.2-5.2,8.8-11.8,6.8l-44.1-75.9-2.5,93.5c-6.4-1.4-11-1.4-17.3,0l-.2-139.4c3.9-.7,13.7-1.7,16,1l51.8,92.2,49.7-91.7c4.6-2,9.2-2.1,17.9-2.2v140.2c-6.5-1.3-9.8-1.5-17.3-.5h0Z"/>
      <path class="st0" d="M2874.8,1199l-2.8-92.3-42.9,76.8c-1.3-.7-4.6-1.5-8.9-.6l-44-76-2,93c-5.4-.9-11-.6-18,.4l.5-139.3c5.7-.4,12.4-.7,15.8.5l52.3,91.9,52.1-91.3c3.3-2.6,12.2-1.2,15.5-.6v136.4c.1,0-17.3,1-17.3,1h0Z"/>
      <path class="st0" d="M4530.6,1126.2c5.4,14.8,21.4,26.7,13.8,47.8-4.7,13.1-18.5,23.9-38.5,24.1l-68.1.4-.5-137.5,66.5.4c16.4,0,26.6,11.2,32.5,20.6,9.8,15.4-4.5,32.9-5.8,44.3h0ZM4520.4,1099.7c.5-23.8-27.3-24.6-64-21-2.2,15.2-2,26.6,0,41.4,35.2,3,63.5,2.2,63.9-20.3h0ZM4507.6,1181c14.8-.2,20.3-13.3,18.6-24.1-3.7-23.4-34.1-22-68.9-17.4-2.7,15.6-2.6,27.2-.5,42l50.7-.5Z"/>
      <path class="st0" d="M4014.6,1199.1c-5.2,1.9-10.6.8-16,0l-73.1-96.1-1.9,96.9-18.4.4.5-139.9c12.5-1.7,16.2,2.2,20.9,8.4l67.5,89.1-.3-97.6,20.5.3.3,138.5h0Z"/>
      <path class="st0" d="M2144.2,1130.3c0,40.5-26.7,68.3-64,69l-55.8,1-.5-139.2,59,.2c36,.1,61.4,31.3,61.3,69.1h0ZM2101.1,1175.1c19.2-9.9,24.1-31.3,23.8-48.8-.3-15.8-7.8-33.4-24.6-42-17.1-8.7-36.9-7.2-57-5.5l2.6,99.2c18.5,4.1,38.4,5.8,55.2-2.9h0Z"/>
      <path class="st0" d="M3177,1198.5l-29-39.7c-4.7-6.5-27.9-6.6-33.5.5-8.7,11.1-3.5,28.3-2.6,40.5l-20.8.2v-139c0,0,64.8.9,64.8.9,20.4.3,33.4,20.1,35.7,34.5,3.6,23.2-1.8,42.2-23,54.6l15.9,30.1,12.8,13.7c-3.4,8.1-17.3,7.9-20.4,3.6h0ZM3160.6,1133c17.9-9.6,17.6-38.4,1.8-48-16-9.6-36.4-9.7-52-3.2l1.4,55.5c16.8,2.2,33.3,4.1,48.9-4.2Z"/>
      <path class="st0" d="M2316.3,1126.1c2.5,43.5-28.6,74.4-67.3,74.4-38.2,0-67.5-31.5-66.5-72.1.9-37.2,27.7-66.6,62.2-68.9,37.6-2.5,69.1,24.7,71.6,66.6ZM2279.3,1088.4c-13.3-11.6-31.6-15-48.5-7.4-19.3,8.8-27.6,27.2-28.6,45.9-.9,18.7,6.5,37.3,24.2,48.6,14.5,9.3,32.1,9.6,47,.7,27.1-16.2,33.5-63.8,5.9-87.8h0Z"/>
      <path class="st0" d="M5119.5,1198.2l-28.9-39.4c-5.2-7.1-31.1-6.6-35.8.8-6.7,11.2-2,26.7-2.2,39.7-7,1.4-11.9,2-19.2.7v-138.9c-.1,0,65,.8,65,.8,20.6.3,33.8,19.9,36.2,34.4,3.9,23.7-1.4,42.4-23.5,54.9,8.4,15.8,14.6,29.8,30.9,44-7.9,7.6-17.2,6.6-22.5,2.9h0ZM5097.2,1136.3c16.4-4.2,21.5-19.1,19.9-32.2-3.1-25.1-30.9-29.4-64.8-24.7l-.4,58.4c15.1,1.5,29.6,2.5,45.3-1.5h0Z"/>
      <path class="st0" d="M3032,1138.6c-18.4.3-35.8-3.7-56.2,1.7-10.4,2.7-10.2,37.9.4,38.2l65.5,1.9c1,5.8,1.9,12.4-.9,19.5h-90.8c0-.1.2-138.7.2-138.7l90.9-.7-.7,17.4-69.5,1.2c-2.7,14.5-2.6,26.8-.1,40.8l61.1.3v18.5s0,0,0,0Z"/>
      <path class="st0" d="M2707.2,1126.3c2.5,43-28.3,74.2-66.3,74.3-38.5,0-67.2-31.8-66.3-72.2.8-37.6,27.1-66.7,62.1-69.2,37.1-2.6,68.1,25.4,70.5,67.1h0ZM2685.1,1111.3c-7.3-22-25.3-34.3-44.4-34.3s-34.7,11.1-42.8,29.3c-7.6,17.1-6.5,35.1,2.6,52.1,6.2,11.6,20.1,23.5,38.5,24.4,16.3.8,33.5-10.8,40.2-21.3,9.4-14.8,11.9-32.3,5.9-50.2h0Z"/>
      <path class="st0" d="M5383.9,1106.3c10,29.2.5,58.9-19.5,77-20.2,18.2-52,24.3-77.6,8.9-36.8-22.2-44.5-74-18.8-107.4,16.5-21.4,39.9-28.4,66.7-24.2,19.9,3.1,40.4,20.2,49.1,45.8h0ZM5367.6,1121.8c-4.3-29.7-27.2-47.4-52.9-44.3-22.6,2.7-40,21.9-42.5,47.1-3.1,30.7,18.8,58.1,47.1,58.4,30.2.4,53.2-28.1,48.4-61.2h0Z"/>
      <path class="st0" d="M4388.9,1126.7c2.2,42.7-28.5,73.8-65.7,74-40,.2-68.1-31-67.6-72.5.5-38.1,27.4-67.5,63.3-69.1,37.1-1.7,68,25.7,70.1,67.6h0ZM4350.4,1087.1c-14.9-11.3-32.1-13.3-48.5-4.9-20.1,10.3-29.8,31.1-27.8,52.7,1.8,18.9,14,39.3,35.2,46,16.1,5.1,31.5,1,43.3-9.4,23.2-20.5,22.7-65.4-2.3-84.4h0Z"/>
      <path class="st0" d="M1591.8,1163.4l-66.3.4-13.7,35.4c-7.1,1.3-12.4,2.6-21.8,0l57.8-135.9c2.4-5.5,19.4-4.2,21.7,1l58.8,135.2c-8.4,1.7-14.1.5-21.9-.1l-14.7-35.8h0ZM1584.8,1145.8l-25.8-56.3-24.9,54.7c15.1,4.9,29.3,3.2,50.8,1.7h0Z"/>
      <path class="st0" d="M3554.4,1165.8c-21.4-7.9-44.1-2.8-65.9-3l-15.4,37-20-.4,56.4-138.1,20.8-.2,58.7,137.8-19.6.8c-7.2-6.9-9.2-22.2-15-34h0ZM3545.2,1145l-24.3-54.8-26.5,55.9c19.9,1.3,30.7,2.6,50.8-1.1h0Z"/>
      <path class="st0" d="M4959.6,1164l-62.3-.5c-10.8,0-9.8,26-21.6,36.4-3.3,2.9-18,.9-16-3.9l55-133.7c4.9-3.2,19.2-3.6,21.1,1.1l58.3,135.5c-4.5,3.4-16.7,3-20.6-.8-6.5-9.2-8.4-19.3-14-34.1h0ZM4950.5,1145l-23.8-54.4c-14.8,15.2-17,35.1-26.9,55.6,19.6,1.5,30.1,2.7,50.7-1.2h0Z"/>
      <path class="st0" d="M1953.2,1163.6l-66.5.8-14.2,34.8-21.3,1.1,57.2-137.7c5.2-2.8,15.9-3.5,20.9-.2l57.9,137.2c-5,1.7-14.3,1.1-18.8-.9-8.1-8.8-9.6-20.4-15.1-35h0ZM1944.4,1145.3l-26-59.5-24.6,60.1c21.4,1.7,32.8,2.3,50.6-.6Z"/>
      <path class="st0" d="M3253.4,1130.5c.6,22.8,11.9,38.9,27.1,46.8,16.1,8.4,40.1,9.3,49.9-7.7,4-6.9,9-3.9,13.6,0,4.9,4.1,8.3,10.7,3.5,14.4-24.2,18.5-51.7,21.2-76.5,9.5s-38.5-39-36.1-69.8c2.1-27.2,17.9-52,41.1-59.9,27-9.2,57.6-5.2,76.5,19.7l-16,11.6c-11.9-17.5-33.6-22.8-54.1-13.6-15.7,7-29.6,25-28.9,49.1h0Z"/>
      <path class="st0" d="M2443.7,1134.6c1.6,19.5,12.9,33.7,23.7,40.7,36.2,23.6,56.5-9.2,58.6-9.4,4.5-.5,12.1,6.2,14.5,13.8-18.2,19.7-47.8,26.2-73.9,16.3-25.1-9.5-41.1-33.9-42.3-63.5-1.2-28.8,14.3-56.3,38.6-67.1,25.3-11.2,58.7-8,76.2,14.4,4.6,5.9-4.3,9.5-6.9,10.8-10,5-28.6-27.8-65.7-5.4-13.8,8.3-24.6,27.1-22.8,49.4h0Z"/>
      <path class="st0" d="M1751.4,1180.4c.9,9.6,1.2,16.4.4,21.6l-86.4-2.1c3.9-30.1-1.7-56.3-2.4-84.3-.4-17.7,8-34.5,1.7-54.8h19.7c0,.1.7,118.5.7,118.5l66.3,1h0Z"/>
      <path class="st0" d="M3713.5,1181.2c2.1,3.1,2.1,9.8,1.4,17.3l-86.6-.3-.3-136.4c6.1-1.9,14.7-1.6,20.5-.1l.3,119.2,64.8.3Z"/>
      <path class="st0" d="M4757.1,1181.3c2.1,3.2,1.7,9.6,1.6,17.2l-87-.2v-137.7s18.4.3,18.4.3l1.5,119.5,65.6,1h0Z"/>
      <rect class="st0" x="3393.9" y="1060.1" width="22" height="140.8"/>
      <path class="st0" d="M4613,1197.1c-5.4,2.6-13.7,1.9-20,.5l-.4-137.1,20.5.2-.2,136.4h0Z"/>
      <rect class="st0" x="4796.6" y="1070.4" width="22" height="138.6"/>
      <polygon class="st0" points="1811.9 1199.8 1794.1 1199.5 1791.6 1060.8 1811.8 1061.1 1811.9 1199.8"/>
      <polygon class="st0" points="3846.8 1199.7 3826.3 1200 3826.4 1060.7 3847 1060.6 3846.8 1199.7"/>
      <rect class="st0" x="5185.8" y="1060.1" width="18.3" height="141"/>
    </g>
    <g>
      <g>
        <path class="st0" d="M1738,633.3l-91,251.4-94.2-260.3-5,237.1c14.2,3.6,25.9,2.2,38.2,1.5,1.9,2.4,1.8,12.9.5,13.9l-91.6-2.1-.4-9.2,38.4-4-1.3-261.4c0-7.7-25.7-9.3-30.4-5.2-10.6.8-12.2-4-10.6-14.3l108,.9,66.9,193.9,68.7-194.5,104.9.7c-11.5,20-27.5,9.5-42.6,12.1l2.1,268.2c18.2.8,33.2-5.1,41.3,16.6h-141.3c5.2-20.4,20.9-18.8,41.3-13.3l-1.8-232.1h0Z"/>
        <path class="st0" d="M2519.2,865.6l37.7-8.3-.2-263.7c-16.2,1.3-36.3,5.6-38.3-14.2l182.1,5.6c64,2,101.7,65.3,107.5,126.4,8.5,88.1-48.7,165.9-138.1,166.4l-148.5.7c-2-4.6-2.4-9.5-2.2-12.9h0ZM2744.5,666.4c-12.5-63-60.9-78.7-130.9-72.7l.6,268.2,54.5-.6c79.5-.8,93-108.2,75.8-194.9h0Z"/>
        <path class="st0" d="M2439.8,873.5c0,6.8-8.4,9.5-14.2,6.7l-185.4-264.6-2.9,245.3,39.1,4.5c-.5,3.4-.4,7.5-.1,9.3l-98.4,3.7c10.1-24.7,27.8-14.3,41.7-20l.3-258.6-36.2-10.3c1.2-3.2.4-7.5-1.7-10.9l106.8,3.4,130.8,188.2,4.3-169.7c-7.8-8.5-29.6-8.4-41.1-4.6-2.5-2.4-2.5-7.5-1.9-14.8l103,2c-6,19.2-21.6,16.1-41.9,11.4l-2.3,279h0Z"/>
        <path class="st0" d="M3056.7,866.3c-64.5,41.2-145.4,9.4-179.6-50.7-31.8-55.9-29.7-123.4,2.2-177.5,23-39,63.1-61,102.1-64.2,44.5-3.6,85.3,13.8,113.6,52.5,52.7,72,42.8,188.1-38.3,239.9h0ZM3059.4,808c8.9-59.8,12.1-123.6-6-182.2-9.2-29.8-39.4-39.8-65.1-38.7-23.5,1-49.9,12.6-58.4,40.1-18.5,60.2-17.7,125.5-5.2,186.6,7.7,37.5,36.4,56.1,70.1,55,33.4-1.1,58.9-23,64.5-60.7h0Z"/>
        <path class="st0" d="M4627.1,874.7c-45.8,19.1-93.7,7.9-130-20.9-66.6-52.9-74.4-177.6-11.6-240.1,31.7-31.5,76.4-48.7,123.7-37.1,69.1,16.9,106.7,82,105.7,151.9-.8,61.3-27.1,120.9-87.8,146.2h0ZM4648.8,650.9c-5.6-41.8-32.4-64.3-70.8-64-36.2.3-62.4,25.1-68.1,66-12.8,91.8-14,209.1,61.2,215.6,89.8,7.7,92-111.3,77.7-217.6h0Z"/>
        <path class="st0" d="M1983.7,734.4c-11.3,40.5-2.7,81.4-3.9,125.2,74.4,10.5,136.5-.4,142.8-68.4.7-8,3.4-14.1,16.1-12l-5.9,99.4-227.2-.2-16.6,2.3c-6.7.9-5.6-17-.8-16.2,8.2,1.4,33.1-.2,33.1-7.4l.2-261.6c-17.2-.5-31.9,3.4-39.2-13.4l243.2-4.2,2.8,82.5c-19.1,7.5-17.6-59.7-62.8-62.3l-86.6-5v122c19.1,5.4,34.3,3.3,49.4-5.2,11.8-6.6,19.7-23.8,20.3-44.2.1-5.3,12.8-4.8,12.6-.5-2.7,45,6.1,84.2-5.2,127.9l-19.6-46.7c-5.3-12.6-37.1-21.4-52.7-11.7h0Z"/>
        <path class="st0" d="M3395.2,878.9l-231,1.4c-3.3-21.1,9.9-35,20.3-51.3l145.9-229.1c-44.3-8-80.2-7.8-113.7,7.5-21.9,10-12.2,37.7-34.2,59.9l-3-89.8,223,1.9-172.1,282.6c35.2,3,68.9,5,101.6-2.6,38.6-9,46.6-45.2,57.8-86.1,15.1,34.1,1.6,65.9,5.3,105.8h0Z"/>
        <path class="st0" d="M4022.1,789c-20.2-17-60.3-4.7-84.7-5.8-14.5,23.1-17.7,45.9-27.4,73.9,15,7.2,27.1,6.2,37.5,6.8,2.4,9.5.7,14.7-3,15.7l-90.9-1.4c1.9-20.7,21.4-16.4,35.3-16.2l111.8-298.8,116.1,301,28.2-.5c3.7,0,1.3,10.9-.6,13.2l-123.3,3.8c-4.4-7.2-3.7-17,.3-17.2l29-1.7c-4.5-18.3-8.2-55.8-28.5-72.9ZM4020,766.9c-16-38.3-20.1-71-42.5-99l-36.5,99.1h79Z"/>
        <path class="st0" d="M3600.7,784.5c-32.9-5.5-61.8-4.5-93.1-1.1l-24.8,78.5,37.2,4-.3,8.9-89.5,1.2c.3-15.4,15-16.9,31.1-11.9l101.8-279c3.4-9.3,3.1-14.5,11.2-14.7,9.8-.3,9.1,3.8,12.8,13.9l101.6,280.4c14.8-3.1,34.1-7.3,36.3,12.2h-139.9c7.8-20.2,22.1-13.9,39.9-14.2l-24.4-78.2h0ZM3591.7,762.4c-15.7-42-20.5-73.3-38.7-102.4l-38,105.5c30.4,4.5,47.1,7.7,76.7-3.1Z"/>
        <path class="st0" d="M5211.3,785.5c-32.9-7.1-60.9-3.8-93.5-2.2l-26,80.8c20.7-3.4,35.9-5.2,40.6,12.6-33.5-1.6-61.9,5.3-95.5-4.8,10.2-13,34.6-5.8,38.5-16.2l109.8-294.1,110.5,296.8c10,8.3,30.3-4.6,42.1,17.5l-138.7,1c-3.7-19.8,9-9.3,35.9-15.5l-23.8-75.9h0ZM5201.7,763.3l-38.6-103-38.6,104.8c26.6,4.7,47,8.3,77.2-1.7Z"/>
        <path class="st0" d="M4384.6,596.4l-78.5,139.9c-6.3,11.3-17.2,147.1,22,127.6,14.9-7.4,18.6,14.3,8.2,14.7l-129.1-3.3v-9.8s38.2-3.2,38.2-3.2l.2-120.2-97.9-147.5c-13.6,3.1-30,3.6-30.7-14.4l136.1-.3c3.1,10.5-1.1,16.1-4.8,16-4.7-.2-16.7-.6-26.5,7l72.3,109.8,74.2-112.8c-12.5-8.5-28-6.9-42.5-5.1-2.5-1.9-1.8-12.8,1.1-14l94,2.2c-.7,1.7-1.2,4.9.3,8l-36.6,5.2h0Z"/>
        <path class="st0" d="M4937.4,859.5c63.8-11.8,47.3-87.9,71.2-84.9l-4.5,102.2-244.9.8c3.6-19.5,20.9-17.3,39.8-14l2.7-248.6c0-5.8-1.2-12.6-3.1-15.3-2.7-4.1-10.2-6-19.1-5.9l-16.4.2c-3.8,0-2.2-13.2,2.2-13.2l131.2,1.2.5,9.7-40,4.4-.4,263.3c25.9,5.1,53.2,5.2,81,0h0Z"/>
      </g>
      <g>
        <path class="st0" d="M3861.8,164.5l-77.7,223.4c-1.9,5.3-2.6,9.1-4.5,10.9-1.9,1.8-13,1.8-13.9-1l-85.7-250.9-5.9,234.8,39.8,7.8c4,3.4,4.1,7.5,4,9.3l-99,4.6.3-16.6c.1-6.6,40.7,8.8,40.5-13l-2.9-257.3-30.5,2.1c-5.3.4-9.9-5-6.3-17.4l106.6,4.4,64.6,184.4,68.2-183.4c35-5,69.9-7.1,106.5.9-12.4,16.1-26.1,10.1-42.9,10.9l.3,267.9c18.4,1.2,33-1.5,44.8,12.2-45.3,11.1-138.5,2.5-137.8,3.1-16.6-15.3,11.4-9.9,36.8-20.6l-5.4-216.3h0Z"/>
        <path class="st0" d="M2678.6,401.3c-3.3,0-2.7-13.8.1-14.4,16.8-3.5,35.9,3.3,35.9-20.8v-227.2c0-30.6-44.9-11.5-38.2-30.4,2.6-7.6,5-7.1,14.3-6.4,58.2,4.7,115.6-5.5,172.9,8,85.5,20.1,121,113.5,94.7,193.4-19.2,58.4-64.1,97.5-126.9,97.6l-152.8.2h0ZM2902.2,190.6c-11.3-63.3-61.1-77.6-132.1-72.4l.4,267.9c28.1,2.8,50.2,1.8,74.4-3.7,66.9-15.1,71.4-113.2,57.3-191.9h0Z"/>
        <path class="st0" d="M4652.3,316c-12.5-16.9-10.5-37.4-20-46.1-15.8-14.6-35.2-17.5-57.8-11.2l.4,127.3,64.6,1.3c77.1,1.5,79.6-77.2,83.4-82.7,2-2.9,12.1-2,12,.7l-5.3,95.1-253,2.2c6.2-21.6,21.9-15.3,39.4-16.7l-.4-266.2c-28.8-4.7-38.1,5.1-34.5-14.7h244.6c-1.5,29,7.2,56.2-5,87.1-13.3-30.7-17.4-59-46.2-68-31.6-9.9-64.6-9-100-6.7l1.9,121.5c12.2,8.6,35.6,3.3,47.3-5,22.1-15.7,18.5-42.8,22.1-48,2.1-3,13.1-1.9,12.9,3.3-2.6,44,7.6,84.4-6.3,126.8h0Z"/>
        <path class="st0" d="M4877,402.9l-94,1c-3.9-15.3,5.2-17.1,9.4-16.8,5.1.5,16.7.3,27.3-2.1l1.4-260.6-39.7-6.7,1.3-11.5,107,.2,131.4,187.7,3.6-170.3c-6.7-8.8-28.9-6.7-38.5-.7-5.9-9.4-4.5-14.6-2.1-22.1l94.8,3.2c3,2.6,3,11.5,1.6,14.6-15.9-2.4-25-2.3-39.6.8l-3.1,281.6c-.1,11.4-20.4-5.7-24.9-12.3l-173.2-248.9-3.9,241.9,40.7,7.5c-.7,4.7-.3,9,.5,13.3h0Z"/>
        <path class="st0" d="M2537.3,109.8c39.5-6.7,95.7-12.7,100.8-1.4,8.2,18.3-38.4,7.2-38.9,22.5l-6.4,204.6c-1.7,54.1-52.4,72.9-101.5,72.5-52.1-.5-108.4-21.8-109.1-78.7l-2.5-210.2-39.2-1.6-.8-14.1c-.1-2.7,7.9-1.2,11.6-1.1l129.2,2.6c-10.3,20.8-28.4,13.1-42.6,17.5l.2,200.6c0,40.9,27.8,65.8,67.6,65.7,42.2-.1,76-28,75.8-72.8l-1-192.1-43.1-14h0Z"/>
        <path class="st0" d="M2207.8,311.7c-26.3-13.1-62.2-4.3-89.3-5l-22.4,73.8c19.3,1.1,33.9,4.4,35.2,22.4l-94.9,1.7,1.7-22.4c3.6,2.5,31.9,7,35.1-1.4l113.2-296.3,108.8,295.5c13.3,7.4,31.8-2.5,40.8,22.5l-140.6.4c7.2-23.3,21.7-16.7,36.5-22.7-4.9-22.1-8.8-48.9-23.9-68.5h0ZM2202.4,288.1l-38.2-104-39.4,105.2c33.5,5.2,50.9,5,77.6-1.2h0Z"/>
        <path class="st0" d="M5270.5,308.8c-33.2-5-61.8-3.7-93.6-1.1l-25.1,80.6c19.4-4.1,35.8-5.5,39,14.5l-94.5,1.6,1.1-20.7c13,4.5,32.4,2.9,37.6-10.7l110.3-289.1,110.5,299.8c13.8,4.4,25.1,3.9,35.3,4.3-.6,8.4,2.2,11.4,1.1,13.9-1.7,3.9-8.6.8-11.3.8l-126.1-.3c4.6-19.6,20.2-17.8,39.9-14.3l-24.3-79.2h0ZM5262.2,288.3l-40.2-104.2-38,105.3c33.2,5.3,52.8,5.4,78.2-1.2h0Z"/>
        <path class="st0" d="M3383.1,388.5l-25.6-78.6c-30.7-6.5-62.6-4.4-94.6-.7l-22.8,78c14.8,1.4,29.9-7.7,42.4,12.2l-98.6,3.5c-.2-19.1,14.5-21.3,31.9-14.1l115.4-305.4,103.3,277.2c15.6,41.9,47,12.9,44.5,36.6-.6,5.8-3.9,6-12.4,6l-119.9-.8c2.5-17.2,14.4-18.6,36.6-13.9h0ZM3347.6,285.6c-14.2-40-16.5-66.9-37.7-97.6l-33.8,103.3c32.3,1.2,54.9,5.8,71.5-5.7Z"/>
        <path class="st0" d="M4431.4,295.8c14.6,33,.4,66.3,5.3,106.7l-246.4,1.5c2.6-4.9,3-9.4,2.5-11.9,10.1-7.1,22.6-3.6,39.3-5.7l.5-267.8-39.8-1.9c-1.9-9.3-.8-14.1,3.8-15l135.5,1.1c1.8,11.8-2.1,16.8-9.4,16.6-13-4.1-34.4,3-34.3,19.3l.9,243.6c35.1,6.6,70.3,7.8,98-6.8,28.9-15.2,27.5-47,44.1-79.7h0Z"/>
        <path class="st0" d="M2003.9,297.1c10.1,35.4-.5,69,1.9,105.5l-241.9-1.2c1.1-3.9,1.2-8.1.6-11.4l37.2-4.5.4-265.5-37.4-4.2.4-11.4,135.1-1.3c3.9,0,4.4,14.9-1.1,15.1l-39.8,1.4.4,263.7c30,5.4,60,5.6,86.1-2,37.4-10.9,42.4-44.5,58.2-84h0Z"/>
        <path class="st0" d="M1659.7,379.7c27-19.9,36.7-47,40.6-73.4,7.8-1.8,15.3.5,15.2,3.1l-3.1,90.2c-12.5-.7-18.3-7.7-28.1-15.6-20.1,13.2-43.8,28.2-68.7,25.4-75.5-8.5-124-74.9-125.7-149.6-1.6-69.9,33.6-132.8,98.8-159.1,31.9-12.9,67.1-1.8,95.5,14,7.7-5.8,16-14.1,25.8-12.6l.8,82.3c-25.6,10.1-11.7-59-72.2-71.2-29.9-6.1-63.3,2.7-73.2,35.4-18.6,61.2-15.5,129.6-6.2,192.3,3.4,23.1,22.3,37.9,35.6,44.6,19.6,9.8,45.8,8.2,64.8-5.8h0Z"/>
        <path class="st0" d="M4140.4,402.8l-127.9-.4c-1.9-6.6-1.8-15-.2-17.7.9-1.5,21.3,5.9,30.7-.9,3.9-2.8,7.4-10.7,7.4-17.9l-1.2-247.8c-15.8-1-30.6,5-41-11.3l139.9-2.6-.2,17.4c-14-2.5-23.6-4.5-41.5-2.2l.2,265.6,40.6,2.8c4.1,10,.5,16.8-6.7,14.8h0Z"/>
        <path class="st0" d="M3147.4,385.9c3.9.3,4.9,16,2.6,17.5l-132.3-1.4c-4.9-.2-4.9-16,3.4-17.8,6-1.2,17.1,2.9,31.1,2.2V119.3c-16.8-.5-32.3,4.7-41.3-12.7l140.1-5.6.4,18.4c-17-2.4-24.9-2.7-42.2,0l.5,263.3,37.8,3.3h0Z"/>
      </g>
    </g>
  </g>
  <g>
    <path class="st0" d="M1285.4,642.7c0,355-287.8,642.7-642.7,642.7S0,997.7,0,642.7,287.8,0,642.7,0s642.7,287.8,642.7,642.7ZM1252.5,642.6c0-336.8-273-609.8-609.8-609.8S32.9,305.8,32.9,642.6s273,609.8,609.8,609.8,609.8-273,609.8-609.8h0Z"/>
    <g>
      <path class="st0" d="M867.6,320.7l-22.2-13.2-193.5,125.5-.4,175c0,3.3-3.3,6.4-5.9,8.9l-32.2-49.8v-155.7l195.1-127.6-166.3-110.3-322.9,209.1-32.4,22.2-33.3,9.8-.2-36,388.8-251.8,185,121.4,2.2-54,161.8-.9.5,162.9,84.9,56-.8,163.5-37.4-84.3-1.5-57.2-84.1-57-.3-143.4h-84.5c0,.1-.4,86.9-.4,86.9h0Z"/>
      <path class="st0" d="M292.7,926.6l320-.3.3-51c13.5,3.6,24.9,7.2,38.7,6.5l.9,44.7h384.3v-200.2l39.7,1.1v237.7c0,0-823.2.2-823.2.2l-.2-97.5,40.3,11.6-.8,47.2h0Z"/>
      <polygon class="st0" points="902.3 673.6 1060.8 674.3 970.5 476.1 857.2 729.1 798.3 861.8 756.2 861.5 954.8 420.9 986.6 420.6 1187.9 861.3 1145.7 861.5 1075.9 708.6 887.5 708.4 902.3 673.6"/>
      <path class="st0" d="M207.2,777.5c43.6,42.7,103,60.8,165,50.5,50.8-8.4,102.5-40.5,131.8-90.8l31,21.7c-39.5,65.3-106.1,103.3-182.7,107.5-131.5,7.1-238.8-88-239.8-222-1-125.8,97.3-227.2,224-227.2,37.2,0,72.8,5.5,106.8,22.8l.3,42.7c-45.4-27.7-99.2-38-151.4-24.3-71.1,18.7-122.1,73.1-136,145.3-12.2,62.9,3.6,127.2,51.2,173.8h0Z"/>
      <path class="st0" d="M646.4,829.6c28.9-1,27.6-59.4,8.1-97.1l22.3-36.5,21.4,46.4c11.2,24.3,11.2,53.1,4.5,78.8-7.6,28.7-31,45.2-60.3,43.6-26.9-1.4-48-20-53.7-47.2-12.1-57.6,21.4-114.3,53.1-163.9l148.7-232.7,35.8-.2-.9,241.6-36.3,79.9-2.4-243.1-127.1,197.3c-13.4,20.8-23.5,41.7-30.9,64.7-10.4,32.3-4,69.1,17.7,68.3h0Z"/>
      <path class="st0" d="M615.6,669.6l-111.4-171.7-.3,200.8c-8.5,21.8-20.6,41-38.2,57.6l-.2-335.4h35.3l138.3,216.6c-9.5,10.1-14.6,19.5-23.4,32.1h0Z"/>
      <polygon class="st0" points="253.3 792.4 253.2 492.4 292.1 474.7 292.6 808.9 253.3 792.4"/>
    </g>
  </g>
</svg>