<?xml version="1.0" encoding="UTF-8"?>
<svg id="Capa_1" data-name="Capa 1" xmlns="http://www.w3.org/2000/svg" viewBox="0 0 5934.94 1568">
  <defs>
    <style>
      .cls-1 {
        fill: #4d4d4d;
      }

      .cls-2 {
        fill: #c5a08e;
      }
    </style>
  </defs>
  <g>
    <g>
      <path d="M4461.41,1341.41l-4.65-89.37-37.49,65.58c-1.82,3.18-5.2,8.78-11.75,6.81l-44.08-75.95-2.49,93.49c-6.43-1.45-11.02-1.36-17.31-.07l-.23-139.45c3.93-.7,13.66-1.72,15.95,1.02l51.77,92.21,49.68-91.72c4.58-2.04,9.19-2.1,17.91-2.22l-.11,140.19c-6.42-1.27-9.73-1.5-17.2-.53Z"/>
      <path d="M3146.07,1340.25l-2.82-92.35-42.95,76.85c-1.34-.67-4.65-1.47-8.92-.56l-44.01-75.98-2.04,92.99c-5.39-.86-10.98-.62-17.99.38l.48-139.33c5.68-.37,12.45-.66,15.78.53l52.28,91.93,52.08-91.31c3.31-2.56,12.19-1.2,15.46-.55l.14,136.42-17.48.98Z"/>
      <path d="M4801.86,1267.45c5.37,14.84,21.37,26.68,13.77,47.82-4.71,13.11-18.46,23.95-38.46,24.07l-68.09.39-.47-137.47,66.48.36c16.39.09,26.56,11.18,32.54,20.56,9.82,15.41-4.55,32.93-5.77,44.26ZM4791.67,1241.02c.49-23.78-27.33-24.59-63.95-21.03-2.22,15.21-2.03,26.6.03,41.37,35.23,2.99,63.45,2.19,63.92-20.34ZM4778.82,1322.33c14.82-.15,20.33-13.31,18.63-24.12-3.68-23.37-34.07-21.96-68.85-17.39-2.7,15.64-2.56,27.23-.51,42.04l50.73-.53Z"/>
      <path d="M4285.89,1340.41c-5.21,1.9-10.57.79-16.03-.07l-73.15-96.07-1.89,96.92-18.41.41.54-139.89c12.49-1.68,16.19,2.21,20.9,8.43l67.54,89.14-.33-97.63,20.54.32.29,138.47Z"/>
      <path d="M2415.49,1271.55c-.07,40.47-26.68,68.33-63.96,68.97l-55.84.96-.5-139.25,58.98.2c35.99.12,61.38,31.26,61.31,69.13ZM2372.36,1316.39c19.22-9.93,24.14-31.26,23.81-48.76-.3-15.8-7.77-33.45-24.64-42-17.09-8.66-36.93-7.25-57.02-5.54l2.61,99.21c18.47,4.09,38.44,5.78,55.24-2.9Z"/>
      <path d="M3448.26,1339.78l-28.99-39.68c-4.73-6.48-27.91-6.6-33.52.52-8.71,11.07-3.51,28.27-2.56,40.51l-20.78.17-.09-138.98,64.93.93c20.45.29,33.43,20.09,35.68,34.5,3.63,23.24-1.84,42.21-23.02,54.64l15.91,30.05,12.84,13.7c-3.39,8.14-17.29,7.9-20.41,3.63ZM3431.88,1274.27c17.93-9.62,17.63-38.44,1.75-48.02-15.98-9.64-36.42-9.65-52.04-3.24l1.43,55.47c16.77,2.15,33.34,4.12,48.86-4.21Z"/>
      <path d="M2587.52,1267.38c2.53,43.49-28.62,74.45-67.27,74.41-38.21-.04-67.5-31.52-66.46-72.14.95-37.25,27.74-66.6,62.17-68.9,37.57-2.51,69.11,24.69,71.56,66.63ZM2550.55,1229.71c-13.31-11.59-31.61-15.03-48.5-7.38-19.33,8.76-27.59,27.22-28.55,45.87-.95,18.65,6.53,37.32,24.19,48.63,14.49,9.28,32.12,9.61,46.98.73,27.1-16.19,33.46-63.84,5.88-87.85Z"/>
      <path d="M5390.73,1339.52l-28.85-39.42c-5.16-7.06-31.1-6.56-35.83.82-6.73,11.15-1.98,26.71-2.22,39.67-6.99,1.37-11.94,1.98-19.19.74l-.13-138.95,65.16.84c20.63.27,33.8,19.89,36.19,34.42,3.9,23.65-1.38,42.42-23.55,54.89,8.38,15.82,14.64,29.78,30.89,44.04-7.85,7.56-17.21,6.61-22.48,2.95ZM5368.42,1277.62c16.36-4.19,21.46-19.12,19.85-32.18-3.08-25.1-30.94-29.45-64.8-24.69l-.35,58.41c15.1,1.53,29.59,2.49,45.29-1.54Z"/>
      <path d="M3303.22,1279.89c-18.45.3-35.78-3.67-56.17,1.65-10.43,2.72-10.21,37.92.36,38.22l65.52,1.87c1.02,5.77,1.89,12.44-.87,19.53l-90.79-.13.18-138.57,90.89-.67-.69,17.38-69.48,1.16c-2.69,14.48-2.6,26.78-.12,40.77l61.15.26.03,18.53Z"/>
      <path d="M2978.42,1267.61c2.5,42.96-28.3,74.21-66.29,74.31-38.54.1-67.2-31.85-66.33-72.25.81-37.59,27.12-66.71,62.13-69.17,37.14-2.6,68.06,25.43,70.49,67.11ZM2956.4,1252.6c-7.33-21.98-25.28-34.34-44.37-34.29s-34.7,11.1-42.83,29.29c-7.63,17.07-6.48,35.14,2.62,52.07,6.23,11.59,20.14,23.5,38.48,24.38,16.3.78,33.48-10.75,40.17-21.26,9.41-14.78,11.89-32.34,5.93-50.19Z"/>
      <path d="M5655.13,1247.61c9.95,29.18.52,58.94-19.47,76.98-20.22,18.25-51.97,24.35-77.59,8.91-36.84-22.19-44.45-74.02-18.77-107.39,16.47-21.4,39.92-28.44,66.71-24.25,19.93,3.11,40.42,20.21,49.13,45.75ZM5638.82,1263.03c-4.34-29.69-27.19-47.38-52.91-44.32-22.6,2.69-39.98,21.87-42.53,47.14-3.1,30.66,18.75,58.05,47.06,58.42,30.18.4,53.22-28.11,48.38-61.25Z"/>
      <path d="M4660.14,1267.97c2.17,42.66-28.46,73.78-65.74,74-40.02.23-68.15-31-67.63-72.49.48-38.08,27.39-67.49,63.29-69.14,37.14-1.7,67.95,25.72,70.08,67.62ZM4621.64,1228.34c-14.86-11.31-32.07-13.27-48.45-4.91-20.11,10.26-29.79,31.09-27.77,52.69,1.77,18.93,14.04,39.32,35.22,46.04,16.14,5.12,31.51,1,43.32-9.42,23.25-20.52,22.69-65.38-2.31-84.4Z"/>
      <path d="M1863.01,1304.71l-66.32.38-13.72,35.4c-7.06,1.3-12.44,2.58-21.75-.1l57.83-135.95c2.36-5.54,19.45-4.23,21.72.99l58.79,135.24c-8.41,1.65-14.09.47-21.87-.14l-14.68-35.81ZM1856.01,1287.11l-25.85-56.33-24.92,54.66c15.11,4.88,29.31,3.23,50.78,1.67Z"/>
      <path d="M3825.67,1307.05c-21.41-7.94-44.14-2.84-65.86-2.96l-15.39,36.99-20.03-.45,56.35-138.05,20.75-.16,58.71,137.82-19.56.8c-7.22-6.92-9.16-22.23-14.97-33.97ZM3816.46,1286.31l-24.34-54.79-26.51,55.89c19.85,1.31,30.66,2.6,50.84-1.1Z"/>
      <path d="M5230.9,1305.28l-62.3-.47c-10.75-.08-9.75,26.01-21.56,36.41-3.31,2.91-18,.87-16.04-3.89l55-133.72c4.86-3.18,19.16-3.56,21.15,1.08l58.31,135.48c-4.55,3.43-16.67,2.96-20.57-.76-6.47-9.18-8.39-19.28-13.99-34.12ZM5221.75,1286.27l-23.82-54.37c-14.76,15.24-16.97,35.12-26.91,55.56,19.61,1.53,30.09,2.74,50.73-1.19Z"/>
      <path d="M2224.43,1304.9l-66.52.76-14.22,34.77-21.32,1.08,57.19-137.73c5.24-2.79,15.94-3.48,20.86-.18l57.94,137.17c-5.01,1.69-14.34,1.09-18.84-.88-8.08-8.75-9.58-20.39-15.09-35ZM2215.63,1286.56l-26.01-59.51-24.56,60.14c21.42,1.66,32.78,2.29,50.57-.63Z"/>
      <path d="M3524.67,1271.75c.62,22.78,11.93,38.88,27.07,46.85,16.06,8.45,40.12,9.27,49.85-7.71,3.98-6.95,8.98-3.92,13.62-.03,4.87,4.08,8.32,10.73,3.47,14.44-24.23,18.53-51.66,21.24-76.48,9.51s-38.5-39.04-36.06-69.85c2.15-27.2,17.92-52.04,41.09-59.9,27-9.16,57.64-5.17,76.52,19.65l-16.04,11.63c-11.88-17.47-33.57-22.84-54.11-13.64-15.69,7.04-29.58,25-28.92,49.06Z"/>
      <path d="M2714.97,1275.9c1.56,19.47,12.9,33.72,23.7,40.74,36.24,23.57,56.49-9.22,58.63-9.44,4.47-.46,12.15,6.17,14.52,13.79-18.18,19.73-47.79,26.22-73.86,16.33-25.07-9.51-41.12-33.89-42.33-63.53-1.18-28.84,14.33-56.32,38.62-67.06,25.28-11.17,58.67-7.97,76.16,14.36,4.61,5.89-4.31,9.51-6.9,10.8-9.97,4.96-28.57-27.77-65.72-5.36-13.8,8.32-24.61,27.05-22.82,49.37Z"/>
      <path d="M2022.66,1321.71c.95,9.61,1.16,16.37.4,21.59l-86.41-2.06c3.9-30.1-1.7-56.29-2.39-84.26-.44-17.71,8-34.53,1.67-54.78l19.69.13.68,118.36,66.35,1.02Z"/>
      <path d="M3984.79,1322.43c2.14,3.13,2.12,9.84,1.35,17.28l-86.57-.27-.31-136.39c6.15-1.87,14.71-1.58,20.5-.11l.26,119.15,64.77.34Z"/>
      <path d="M5028.31,1322.54c2.13,3.25,1.72,9.55,1.58,17.19l-87.04-.22-.03-137.74,18.43.27,1.45,119.5,65.6.99Z"/>
      <rect x="3665.2" y="1201.41" width="21.99" height="140.81"/>
      <path d="M4884.25,1338.34c-5.38,2.57-13.73,1.93-19.95.5l-.38-137.1,20.51.18-.18,136.42Z"/>
      <rect x="5070.4" y="1201.42" width="21.95" height="138.58" transform="translate(-2.54 10.21)"/>
      <polygon points="2083.11 1341.03 2065.33 1340.78 2062.8 1202.03 2083.09 1202.35 2083.11 1341.03"/>
      <polygon points="4118.03 1340.99 4097.51 1341.27 4097.69 1202.02 4118.3 1201.88 4118.03 1340.99"/>
      <rect x="5457.08" y="1201.34" width="18.28" height="141.01"/>
    </g>
    <g>
      <g>
        <path class="cls-1" d="M2009.28,774.56l-91.03,251.42-94.24-260.26-5.02,237.13c14.23,3.57,25.94,2.18,38.16,1.45,1.91,2.44,1.83,12.91.52,13.93l-91.58-2.07-.37-9.24,38.38-4-1.3-261.41c-.04-7.72-25.73-9.35-30.45-5.23-10.58.79-12.19-4.05-10.62-14.27l108.04.88,66.95,193.94,68.7-194.51,104.94.7c-11.54,20.05-27.47,9.48-42.64,12.12l2.06,268.16c18.21.78,33.16-5.08,41.27,16.62l-141.29.08c5.25-20.52,20.9-18.92,41.34-13.38l-1.83-232.06Z"/>
        <path class="cls-1" d="M2790.42,1006.87l37.74-8.34-.19-263.72c-16.19,1.35-36.3,5.6-38.33-14.19l182.07,5.62c63.97,1.97,101.66,65.3,107.54,126.41,8.49,88.14-48.74,165.93-138.05,166.37l-148.54.73c-2.02-4.64-2.44-9.52-2.23-12.89ZM3015.76,807.73c-12.53-63.03-60.9-78.7-130.94-72.7l.64,268.16,54.5-.57c79.47-.83,93.01-108.24,75.8-194.88Z"/>
        <path class="cls-1" d="M2711,1014.79c-.06,6.8-8.42,9.49-14.16,6.65l-185.44-264.64-2.94,245.28,39.09,4.55c-.53,3.37-.36,7.5-.1,9.31l-98.36,3.67c10.1-24.69,27.81-14.32,41.74-20.01l.29-258.64-36.21-10.26c1.21-3.24.42-7.54-1.7-10.89l106.75,3.38,130.8,188.22,4.33-169.68c-7.83-8.52-29.64-8.41-41.11-4.56-2.47-2.38-2.51-7.47-1.87-14.81l103.02,2.04c-5.99,19.17-21.58,16.06-41.88,11.4l-2.27,278.99Z"/>
        <path class="cls-1" d="M3327.95,1007.55c-64.51,41.17-145.41,9.44-179.57-50.73-31.75-55.91-29.71-123.42,2.16-177.49,22.99-39,63.13-60.97,102.14-64.16,44.47-3.64,85.26,13.75,113.62,52.49,52.72,72.02,42.78,188.13-38.34,239.89ZM3330.68,949.28c8.85-59.79,12.05-123.57-6.01-182.25-9.16-29.77-39.39-39.85-65.1-38.73-23.48,1.02-49.88,12.58-58.35,40.11-18.54,60.25-17.69,125.48-5.21,186.59,7.67,37.54,36.38,56.09,70.13,54.96,33.4-1.12,58.95-22.95,64.53-60.68Z"/>
        <path class="cls-2" d="M4898.34,1016.02c-45.79,19.1-93.73,7.92-130.04-20.93-66.57-52.9-74.39-177.62-11.59-240.09,31.67-31.5,76.4-48.67,123.71-37.12,69.1,16.87,106.66,82.01,105.73,151.92-.81,61.26-27.09,120.9-87.81,146.23ZM4920.05,792.15c-5.64-41.75-32.39-64.26-70.75-63.98-36.18.26-62.42,25.09-68.12,66.03-12.79,91.81-13.95,209.13,61.21,215.56,89.77,7.68,92.04-111.27,77.66-217.6Z"/>
        <path class="cls-1" d="M2254.94,875.65c-11.33,40.52-2.66,81.43-3.86,125.24,74.45,10.55,136.47-.37,142.76-68.38.74-8.04,3.45-14.12,16.15-12.04l-5.91,99.42-227.23-.22-16.58,2.27c-6.71.92-5.62-17.04-.8-16.22,8.18,1.38,33.15-.17,33.15-7.42l.18-261.6c-17.2-.55-31.94,3.39-39.24-13.44l243.21-4.25,2.77,82.53c-19.05,7.46-17.62-59.7-62.84-62.32l-86.56-5.02.13,122c19,5.4,34.2,3.28,49.31-5.2,11.78-6.61,19.74-23.82,20.29-44.21.14-5.3,12.84-4.77,12.58-.55-2.73,44.96,6.12,84.25-5.21,127.86l-19.58-46.71c-5.29-12.62-37.05-21.41-52.74-11.74Z"/>
        <path class="cls-1" d="M3666.48,1020.17l-230.99,1.36c-3.31-21.11,9.95-35.05,20.3-51.31l145.94-229.13c-44.34-8.03-80.17-7.8-113.73,7.45-21.94,9.97-12.23,37.65-34.16,59.92l-2.97-89.82,222.98,1.88-172.1,282.64c35.18,3.02,68.92,5.01,101.58-2.64,38.65-9.05,46.65-45.22,57.84-86.13,15.15,34.11,1.57,65.94,5.31,105.79Z"/>
        <path class="cls-2" d="M4293.32,930.32c-20.17-17.04-60.31-4.65-84.68-5.75-14.49,23.12-17.74,45.92-27.42,73.87,14.95,7.15,27.09,6.15,37.55,6.81,2.35,9.5.7,14.74-3,15.71l-90.85-1.43c1.86-20.71,21.36-16.36,35.33-16.18l111.81-298.76,116.08,300.97,28.24-.46c3.68-.06,1.33,10.94-.65,13.22l-123.28,3.81c-4.44-7.22-3.72-16.95.33-17.19l29.01-1.72c-4.49-18.28-8.2-55.78-28.47-72.9ZM4291.26,908.14c-16.03-38.29-20.11-71.05-42.49-98.97l-36.55,99.11,79.04-.14Z"/>
        <path class="cls-1" d="M3871.92,925.79c-32.85-5.54-61.79-4.48-93.06-1.08l-24.77,78.45,37.2,4.04-.29,8.91-89.48,1.21c.34-15.42,15.04-16.91,31.08-11.89l101.79-279.03c3.38-9.26,3.14-14.49,11.22-14.72,9.79-.27,9.08,3.75,12.75,13.88l101.62,280.43c14.84-3.09,34.14-7.3,36.31,12.25l-139.85.08c7.83-20.31,22.1-14.01,39.88-14.31l-24.41-78.23ZM3862.99,903.65c-15.7-41.96-20.46-73.35-38.66-102.4l-38.02,105.52c30.38,4.48,47.13,7.74,76.68-3.12Z"/>
        <path class="cls-2" d="M5482.54,926.8c-32.92-7.11-60.93-3.85-93.53-2.19l-25.97,80.82c20.7-3.4,35.89-5.25,40.61,12.64-33.54-1.57-61.91,5.26-95.48-4.85,10.22-12.95,34.65-5.82,38.52-16.18l109.77-294.08,110.51,296.81c10.05,8.26,30.28-4.58,42.12,17.5l-138.69.95c-3.72-19.76,8.98-9.32,35.88-15.53l-23.75-75.89ZM5472.96,904.55l-38.58-103.02-38.59,104.76c26.63,4.65,47,8.35,77.17-1.74Z"/>
        <path class="cls-2" d="M4655.9,737.72l-78.54,139.88c-6.32,11.26-17.18,147.05,22.01,127.64,14.86-7.36,18.59,14.34,8.25,14.68l-129.09-3.29.03-9.8,38.14-3.22.23-120.16-97.91-147.45c-13.62,3.13-30.02,3.6-30.72-14.42l136.1-.34c3.15,10.45-1.1,16.14-4.76,15.97-4.72-.22-16.73-.61-26.48,7.04l72.3,109.84,74.22-112.79c-12.45-8.53-28.01-6.94-42.5-5.07-2.52-1.91-1.78-12.77,1.07-13.98l94,2.22c-.72,1.71-1.23,4.91.29,8.02l-36.65,5.23Z"/>
        <path class="cls-2" d="M5208.62,1000.8c63.8-11.77,47.34-87.86,71.2-84.9l-4.52,102.18-244.92.83c3.64-19.51,20.85-17.32,39.75-13.97l2.72-248.64c.06-5.77-1.25-12.57-3.06-15.3-2.69-4.07-10.24-5.97-19.13-5.88l-16.4.16c-3.79.04-2.2-13.2,2.16-13.16l131.21,1.24.47,9.7-40.03,4.36-.38,263.31c25.93,5.13,53.2,5.19,80.95.07Z"/>
      </g>
      <g>
        <path class="cls-1" d="M4133.03,305.81l-77.73,223.38c-1.85,5.31-2.59,9.09-4.46,10.92-1.89,1.85-12.99,1.82-13.95-.98l-85.68-250.85-5.94,234.8,39.82,7.84c3.97,3.41,4.15,7.53,3.97,9.27l-98.99,4.58.26-16.62c.1-6.63,40.71,8.82,40.47-13.04l-2.89-257.31-30.47,2.13c-5.33.37-9.93-4.96-6.32-17.42l106.59,4.36,64.62,184.36,68.2-183.4c35.05-5.01,69.89-7.06,106.54.85-12.44,16.09-26.14,10.09-42.89,10.9l.32,267.89c18.35,1.17,32.98-1.5,44.82,12.17-45.27,11.07-138.45,2.45-137.78,3.07-16.58-15.26,11.42-9.91,36.83-20.56l-5.35-216.33Z"/>
        <path class="cls-2" d="M2949.88,542.58c-3.3,0-2.71-13.78.14-14.36,16.83-3.45,35.94,3.28,35.94-20.84l.05-227.19c0-30.63-44.92-11.48-38.3-30.41,2.64-7.56,5.03-7.13,14.27-6.38,58.24,4.74,115.57-5.51,172.93,7.99,85.52,20.12,121.01,113.49,94.67,193.38-19.25,58.39-64.05,97.54-126.89,97.62l-152.81.2ZM3173.42,331.9c-11.34-63.3-61.08-77.62-132.07-72.39l.4,267.92c28.07,2.84,50.2,1.77,74.41-3.68,66.91-15.08,71.37-113.18,57.27-191.85Z"/>
        <path class="cls-1" d="M4923.51,457.26c-12.5-16.87-10.46-37.4-19.95-46.14-15.83-14.57-35.21-17.52-57.79-11.17l.43,127.34,64.6,1.3c77.07,1.55,79.58-77.16,83.44-82.66,2.02-2.88,12.15-1.96,12,.7l-5.32,95.06-253.04,2.22c6.23-21.6,21.94-15.34,39.37-16.66l-.37-266.16c-28.82-4.68-38.13,5.1-34.55-14.74l244.57.03c-1.47,28.95,7.22,56.17-5.02,87.07-13.3-30.74-17.35-58.97-46.21-68.03-31.56-9.91-64.58-8.99-100.04-6.69l1.91,121.45c12.22,8.62,35.6,3.31,47.3-5,22.09-15.67,18.46-42.84,22.1-48.03,2.09-2.98,13.15-1.87,12.85,3.28-2.57,44.01,7.56,84.36-6.28,126.79Z"/>
        <path class="cls-1" d="M5148.22,544.18l-93.95.99c-3.94-15.27,5.2-17.13,9.38-16.75,5.13.47,16.68.3,27.32-2.14l1.37-260.64-39.72-6.69,1.29-11.47,107.03.19,131.44,187.7,3.62-170.27c-6.73-8.84-28.85-6.68-38.53-.68-5.86-9.4-4.45-14.63-2.14-22.09l94.83,3.23c3.03,2.58,3.01,11.5,1.57,14.61-15.85-2.44-25-2.33-39.64.84l-3.09,281.62c-.12,11.4-20.35-5.71-24.94-12.31l-173.16-248.88-3.88,241.93,40.72,7.5c-.67,4.7-.34,9.03.48,13.31Z"/>
        <path class="cls-2" d="M2808.54,251.04c39.46-6.74,95.71-12.67,100.77-1.45,8.23,18.28-38.37,7.16-38.85,22.55l-6.39,204.62c-1.69,54.13-52.45,72.91-101.49,72.46-52.13-.48-108.41-21.77-109.08-78.68l-2.47-210.22-39.24-1.59-.77-14.06c-.15-2.71,7.94-1.17,11.55-1.1l129.22,2.61c-10.28,20.85-28.39,13.11-42.62,17.49l.2,200.63c.04,40.91,27.75,65.77,67.62,65.66,42.18-.12,76-28.05,75.76-72.76l-1.04-192.15-43.14-14.02Z"/>
        <path class="cls-2" d="M2479.05,452.98c-26.28-13.1-62.25-4.34-89.34-5.02l-22.45,73.76c19.28,1.09,33.95,4.38,35.18,22.42l-94.87,1.68,1.71-22.4c3.62,2.47,31.88,7.02,35.1-1.4l113.17-296.28,108.76,295.54c13.34,7.37,31.78-2.45,40.75,22.48l-140.65.41c7.19-23.3,21.66-16.69,36.48-22.65-4.89-22.11-8.78-48.93-23.85-68.53ZM2473.62,429.39l-38.24-103.97-39.41,105.21c33.53,5.21,50.94,5.01,77.64-1.24Z"/>
        <path class="cls-1" d="M5541.71,450.05c-33.21-5-61.76-3.67-93.6-1.14l-25.12,80.56c19.43-4.06,35.79-5.54,39.04,14.5l-94.52,1.62,1.07-20.74c13.01,4.54,32.42,2.93,37.61-10.68l110.3-289.1,110.53,299.81c13.81,4.4,25.08,3.9,35.31,4.28-.58,8.39,2.16,11.42,1.12,13.86-1.67,3.94-8.57.82-11.27.81l-126.06-.31c4.63-19.63,20.19-17.75,39.92-14.27l-24.34-79.2ZM5533.46,429.54l-40.17-104.16-38.05,105.33c33.18,5.32,52.84,5.41,78.22-1.17Z"/>
        <path class="cls-2" d="M3654.39,529.74l-25.65-78.57c-30.7-6.51-62.59-4.41-94.65-.68l-22.83,78c14.77,1.43,29.95-7.73,42.4,12.19l-98.62,3.46c-.22-19.09,14.54-21.29,31.91-14.07l115.36-305.36,103.34,277.17c15.62,41.89,47.04,12.87,44.46,36.62-.63,5.8-3.86,6.02-12.43,5.96l-119.93-.77c2.48-17.21,14.35-18.57,36.65-13.94ZM3618.81,426.87c-14.24-40.02-16.5-66.89-37.74-97.63l-33.79,103.31c32.31,1.2,54.86,5.75,71.53-5.68Z"/>
        <path class="cls-1" d="M4702.63,437.09c14.58,32.95.37,66.26,5.26,106.71l-246.41,1.49c2.63-4.86,3.02-9.41,2.46-11.87,10.13-7.09,22.64-3.6,39.29-5.72l.53-267.84-39.8-1.9c-1.9-9.28-.82-14.1,3.77-15.04l135.53,1.14c1.84,11.79-2.08,16.76-9.37,16.64-13.04-4.11-34.38,3.02-34.32,19.29l.93,243.56c35.1,6.62,70.29,7.82,98.02-6.78,28.87-15.2,27.54-47,44.12-79.69Z"/>
        <path class="cls-2" d="M2275.18,438.36c10.11,35.41-.48,69.05,1.91,105.53l-241.92-1.23c1.09-3.9,1.17-8.11.62-11.44l37.16-4.5.37-265.55-37.4-4.22.38-11.41,135.09-1.29c3.89-.04,4.41,14.89-1.15,15.08l-39.8,1.36.37,263.69c29.99,5.43,59.96,5.59,86.13-2.05,37.44-10.93,42.37-44.55,58.23-83.98Z"/>
        <path class="cls-2" d="M1930.9,520.97c27.04-19.9,36.66-47.03,40.6-73.36,7.81-1.83,15.32.48,15.24,3.11l-3.06,90.16c-12.48-.74-18.31-7.74-28.08-15.58-20.12,13.24-43.85,28.2-68.67,25.39-75.53-8.55-123.97-74.88-125.65-149.64-1.57-69.88,33.59-132.75,98.79-159.12,31.87-12.89,67.1-1.79,95.52,14.03,7.66-5.76,15.96-14.11,25.77-12.6l.82,82.32c-25.55,10.11-11.68-59.01-72.15-71.23-29.92-6.05-63.31,2.7-73.22,35.41-18.56,61.24-15.52,129.56-6.24,192.32,3.41,23.07,22.31,37.92,35.59,44.57,19.55,9.79,45.75,8.2,64.75-5.78Z"/>
        <path class="cls-1" d="M4411.61,544.09l-127.9-.38c-1.9-6.6-1.82-14.99-.21-17.66.87-1.45,21.27,5.89,30.68-.89,3.94-2.84,7.38-10.65,7.35-17.87l-1.19-247.78c-15.84-.99-30.65,4.98-41.04-11.3l139.88-2.55-.17,17.43c-14.04-2.45-23.65-4.49-41.51-2.18l.22,265.57,40.63,2.81c4.06,9.97.48,16.81-6.73,14.79Z"/>
        <path class="cls-2" d="M3418.67,527.2c3.87.33,4.89,16.03,2.65,17.47l-132.33-1.44c-4.89-.21-4.93-16.04,3.35-17.77,5.99-1.25,17.08,2.9,31.14,2.25l.12-267.15c-16.95-.54-32.41,4.67-41.41-12.7l140.08-5.59.35,18.36c-17-2.41-24.94-2.73-42.16.02l.46,263.28,37.76,3.27Z"/>
      </g>
    </g>
  </g>
  <g>
    <path class="cls-2" d="M1556.69,784c0,354.97-287.76,642.72-642.72,642.72s-642.72-287.76-642.72-642.72S559,141.28,913.97,141.28s642.72,287.76,642.72,642.72ZM1523.77,783.88c0-336.79-273.02-609.8-609.8-609.8S304.16,447.09,304.16,783.88s273.02,609.8,609.8,609.8,609.8-273.02,609.8-609.8Z"/>
    <g>
      <path class="cls-2" d="M1138.85,461.96l-22.19-13.22-193.51,125.54-.39,175.01c0,3.32-3.29,6.39-5.94,8.86l-32.19-49.75v-155.66s195.11-127.61,195.11-127.61l-166.32-110.28-322.9,209.08-32.36,22.21-33.29,9.76-.22-36,388.78-251.84,185.02,121.45,2.19-53.98,161.82-.92.47,162.9,84.9,56-.83,163.54-37.38-84.31-1.5-57.24-84.07-57.05-.28-143.41-84.49.1-.42,86.82Z"/>
      <path class="cls-2" d="M563.95,1067.88l320.05-.33.26-50.97c13.55,3.62,24.94,7.19,38.7,6.53l.87,44.66,384.32-.06v-200.11s39.68,1.11,39.68,1.11l-.05,237.72-823.18.18-.21-97.51,40.33,11.6-.76,47.17Z"/>
      <polygon class="cls-1" points="1173.57 814.87 1332.05 815.53 1241.78 617.33 1128.42 870.4 1069.51 1003.03 1027.42 1002.77 1226.05 562.16 1257.81 561.89 1459.19 1002.54 1416.97 1002.82 1347.11 849.93 1158.78 849.71 1173.57 814.87"/>
      <path class="cls-1" d="M478.46,918.8c43.62,42.66,103.04,60.78,164.96,50.5,50.77-8.43,102.51-40.51,131.76-90.81l31.02,21.68c-39.49,65.34-106.11,103.34-182.66,107.47-131.55,7.1-238.82-88.03-239.83-221.97-.95-125.8,97.28-227.23,223.97-227.15,37.15.02,72.78,5.53,106.76,22.83l.31,42.7c-45.42-27.68-99.19-38.01-151.42-24.3-71.11,18.66-122.08,73.1-136.05,145.32-12.17,62.88,3.59,127.22,51.17,173.76Z"/>
      <path class="cls-2" d="M917.63,970.88c28.91-1.03,27.61-59.38,8.11-97.1l22.27-36.51,21.4,46.44c11.22,24.35,11.22,53.11,4.45,78.83-7.56,28.74-31.03,45.21-60.31,43.64-26.94-1.44-48.04-20.04-53.74-47.23-12.08-57.64,21.43-114.28,53.12-163.87l148.68-232.67,35.84-.2-.87,241.62-36.27,79.92-2.39-243.13-127.09,197.29c-13.38,20.77-23.48,41.67-30.88,64.69-10.38,32.28-3.95,69.06,17.69,68.29Z"/>
      <path class="cls-1" d="M886.85,810.85l-111.4-171.65-.35,200.79c-8.45,21.78-20.59,41.03-38.17,57.58l-.23-335.43h35.29s138.28,216.6,138.28,216.6c-9.45,10.06-14.61,19.47-23.42,32.12Z"/>
      <polygon class="cls-2" points="524.57 933.7 524.49 633.73 563.31 616.01 563.81 950.14 524.57 933.7"/>
    </g>
  </g>
</svg>